# xmcd
#
# Track frame offsets:
#	150
#	12600
#	24340
#	36980
#	45762
#	54642
#	66862
#	78707
#	86360
#	96937
#	107190
#	115247
#	124657
#	133145
#	144442
#	154987
#
# Disc length: 2170 seconds
#
# Revision: 0
# Processed by: cddbd v1.5.2PL0 Copyright (c) Steve Scherf et al.
# Submitted via: audiograbber 1.83.01
#
DISCID=d9087810
DTITLE=Various Artist - Country Legends - Precious Memories (2CD Pack) [CD2
DTITLE=)
DYEAR=1900
DGENRE=Country
TTITLE0=Hank Williams - Move It On Over
TTITLE1=Hank Williams - A Mansion On The Hill
TTITLE2=Hank Williams - I'm So Lonesome I Could Cry
TTITLE3=Jim Reeves - Yonder Comes A Sucker
TTITLE4=Jim Reeves - According To My Heart
TTITLE5=Jim Reeves - Four Walls
TTITLE6=Jim Reeves - Mexican Joe
TTITLE7=Jim Reeves - Bimbo
TTITLE8=Jim Reeves - Peace In The Valley
TTITLE9=Jim Reeves - He'll Have To Go
TTITLE10=Roger Miller - In The Summertime
TTITLE11=Roger Miller - Chug A Lug
TTITLE12=Roger Miller - Dang Me
TTITLE13=Roger Miller - King Of The Road
TTITLE14=Roger Miller - Engine Engine No 9
TTITLE15=Roger Miller - Do-Wackado
EXTD=
EXTT0=
EXTT1=
EXTT2=
EXTT3=
EXTT4=
EXTT5=
EXTT6=
EXTT7=
EXTT8=
EXTT9=
EXTT10=
EXTT11=
EXTT12=
EXTT13=
EXTT14=
EXTT15=
PLAYORDER=
